<svg width="32" height="32" xmlns="http://www.w3.org/2000/svg">

 <g>
  <title>Layer 1</title>
  <path id="svg_4" d="m15.8258,4.74851l15.37581,11.00104l-3.7689,-0.04152l-0.0823,6.54733l-0.04376,5.05095c-2.40974,1.25349 -2.50001,1.23784 -4.99728,-0.04695l-0.32227,-12.175c-4.74589,-1.38611 -7.82875,-1.19673 -12.137,0.17427l-0.06492,11.90741c-2.47707,1.37637 -2.59091,1.30856 -5.02422,0.01536l-0.13129,-4.92285l0.08752,-6.79936l-3.80744,0.02777l14.91605,-10.73845z" opacity="undefined"/>
  <path stroke="null" id="svg_5" d="m13.63676,16.50766c2.24654,-0.87527 2.39241,-0.87527 5.03282,0l0,10.37199c-2.24654,1.22538 -2.43617,1.22538 -5.03282,0l0,-10.37199z" opacity="undefined"/>
 </g>
</svg>